<svg xmlns="http://www.w3.org/2000/svg" width="1920" height="635"><defs><linearGradient id="b" x1=".5" y1="1" x2=".5" gradientUnits="objectBoundingBox"><stop offset="0" stop-color="#d72344"/><stop offset=".729" stop-color="#d72344"/><stop offset="1" stop-color="#8b2346"/></linearGradient><linearGradient id="c" x1=".5" x2=".5" y2=".936" gradientUnits="objectBoundingBox"><stop offset="0" stop-color="#1d486f"/><stop offset=".808" stop-color="#1d486f"/><stop offset="1" stop-color="#32355b"/></linearGradient><clipPath id="a"><path data-name="Rectangle 533" transform="translate(8365 1884)" fill="#fff" d="M0 0h1920v635H0z"/></clipPath></defs><g data-name="Group 2631"><path data-name="Rectangle 532" fill="#1d1f48" d="M0 0h1920v635H0z"/><g data-name="Mask Group 65" transform="translate(-8365 -1884)" clip-path="url(#a)"><g data-name="Group 1837"><path data-name="Path 2751" d="M494.826 457.842s-24.594-78.387-269.195-172.936C177.87 265-3.835 201.484.061 110.381a68.65 68.65 0 011-9.065C24.888-33.4 508.584-100.733 507.97 341.582c.413 41.03-3.443 81.627-13.144 116.26z" transform="translate(8501 2258.718)" fill="url(#b)"/><path data-name="Path 2750" d="M38.9 0s72.63 231.474 794.927 510.676c141.038 58.774 677.607 246.342 666.1 515.37a202.791 202.791 0 01-2.943 26.77C1426.616 1450.62-1.725 1649.46.088 343.314-1.132 222.152 10.256 102.271 38.9 0z" transform="translate(8941 1516.953)" fill="url(#c)"/></g></g></g></svg>